<svg width="36" height="34" viewBox="0 0 36 34" fill="none" xmlns="http://www.w3.org/2000/svg">
<path d="M22.8046 11.0078H14.21V12.499H22.8046V11.0078Z" fill="white"/>
<path d="M22.8046 8.21484H14.21V9.70605H22.8046V8.21484Z" fill="white"/>
<path d="M35.9559 24.1514L35.9566 24.1506L35.9523 24.138C35.9338 24.0711 35.9106 24.0069 35.8818 23.9467L31.6601 12.4531L31.6002 12.328C31.3387 11.8907 30.7932 11.7191 30.3769 11.9108L28.0595 12.775V5.92902C28.0595 5.73106 27.9807 5.54176 27.8409 5.40126L22.6503 0.218034C22.5105 0.0787126 22.3203 0 22.1226 0H9.70084C9.28887 0 8.95449 0.334135 8.95449 0.745801V13.0246L6.30701 11.8848C5.7887 11.699 5.21525 11.9675 5.04314 12.4456L0.0620829 24.0923C-0.121846 24.5914 0.116828 25.1459 0.594178 25.3506L17.854 33.1234C17.9899 33.1864 18.1344 33.2167 18.2766 33.2167C18.3676 33.2167 18.457 33.2017 18.5436 33.1781C18.5535 33.1781 18.561 33.1817 18.5712 33.1817C18.7437 33.1817 18.9497 33.14 19.1911 33.0282L35.4561 25.4466C35.6908 25.3388 35.8645 25.1329 35.9464 24.8681C36.0157 24.6429 36.0165 24.3816 35.9562 24.1514H35.9559ZM22.8815 2.91748L25.1233 5.15764H22.8815V2.91748ZM10.4468 1.49121H21.3888V6.64885H26.5676V13.3315L18.1663 16.4655L10.4472 13.6598V1.49121H10.4468ZM6.22549 13.472L8.51771 14.4587L3.92223 25.214L1.6434 24.1876L6.22549 13.472ZM17.9552 31.5334L5.28339 25.8268L9.89107 15.0428L17.1191 17.6718L13.3975 24.9609C13.2471 25.2026 13.2065 25.4989 13.2873 25.7725C13.3684 26.0464 13.5638 26.2743 13.8123 26.3907L16.6649 27.7847C17.0667 27.9681 17.5354 27.8713 17.8284 27.5411L20.2325 23.1344L22.2569 24.2139L17.9548 31.5326L17.9552 31.5334ZM19.9965 31.0029L23.783 24.5623C23.9394 24.3186 23.9823 24.0187 23.9004 23.7409C23.8177 23.4622 23.6192 23.2332 23.3971 23.134L20.7921 21.7447L20.4408 21.5574C20.3061 21.4964 20.1647 21.4673 20.0249 21.4673C19.7476 21.4673 19.4759 21.5838 19.2813 21.8014L16.8674 26.2247L14.9131 25.2695L18.3061 18.6297L18.7 17.8587L19.3932 17.6001L26.6503 14.8916L30.6952 26.0196L20.4774 30.7794L19.9965 31.0033V31.0029ZM32.0528 25.3868L28.0481 14.3694L30.4455 13.4748L34.4163 24.2856L32.0524 25.3868H32.0528Z" fill="white"/>
</svg>
